<svg width="525" height="600" viewBox="0 0 586 487" fill="none" xmlns="http://www.w3.org/2000/svg">
<path d="M297.509 421.353C419.967 421.353 519.24 418.784 519.24 415.616C519.24 412.448 419.967 409.879 297.509 409.879C175.051 409.879 75.7786 412.448 75.7786 415.616C75.7786 418.784 175.051 421.353 297.509 421.353Z" fill="#F5F8FF"/>
<path d="M327.807 413.296H177.26C165.049 413.296 156.828 404.589 158.899 393.85L219.531 79.3684C221.602 68.6287 233.18 59.9226 245.391 59.9226H395.939C408.15 59.9226 416.37 68.6287 414.3 79.3684L353.667 393.85C351.597 404.589 340.018 413.296 327.807 413.296Z" fill="#5CA4E6"/>
<path d="M309.004 413.296H158.456C146.245 413.296 138.024 404.589 140.095 393.85L200.728 79.3684C202.798 68.6287 214.376 59.9226 226.587 59.9226H377.134C389.346 59.9226 397.567 68.6287 395.496 79.3684L334.863 393.85C332.793 404.589 321.215 413.296 309.004 413.296Z" fill="#D1E8F7"/>
<path d="M309.869 402.782H161.645C155.305 402.782 151.036 398.261 152.111 392.685L212.295 80.5333C213.37 74.9569 219.382 70.4365 225.722 70.4365H373.947C380.287 70.4365 384.556 74.9569 383.48 80.5333L323.297 392.685C322.222 398.261 316.21 402.782 309.869 402.782Z" fill="white"/>
<path d="M323.899 175.611H182.172L196.943 103.843C197.911 99.4674 202.729 95.9202 207.704 95.9202H341.522C346.498 95.9202 349.747 99.4674 348.779 103.843L334.66 167.688C333.692 172.063 328.875 175.611 323.899 175.611Z" fill="url(#paint0_linear_0_260)"/>
<path d="M312.478 166.376H100.303C95.3281 166.376 92.0787 162.828 93.0465 158.453L107.166 94.608C108.133 90.2321 112.951 86.6848 117.927 86.6848H330.101C335.076 86.6848 338.325 90.2321 337.358 94.608L323.238 158.453C322.271 162.828 317.453 166.376 312.478 166.376Z" fill="#FEBB94"/>
<path d="M298.939 394.643L167.344 395.192C162.368 395.192 159.119 391.645 160.087 387.27L174.206 323.425C175.174 319.049 179.991 315.502 184.967 315.502L316.562 314.953C321.538 314.953 324.787 318.5 323.819 322.876L309.7 386.72C308.732 391.096 303.915 394.643 298.939 394.643Z" fill="#FEBB94"/>
<path d="M181.817 375.31C185.562 349.553 213.389 328.673 243.971 328.673C274.553 328.673 296.309 349.553 292.565 375.31" stroke="#FF967C" stroke-width="16.5208" stroke-miterlimit="10" stroke-linecap="round"/>
<path d="M181.817 375.31C185.562 349.553 213.389 328.673 243.971 328.673C259.107 328.673 272.082 333.787 280.872 342.077" stroke="white" stroke-width="16.5208" stroke-miterlimit="10" stroke-linecap="round"/>
<path d="M283.203 305.926H188.977C183.948 305.926 180.548 302.34 181.385 297.917L201.285 192.646C202.121 188.223 206.876 184.637 211.905 184.637H306.13C311.16 184.637 314.559 188.223 313.723 192.646L293.823 297.917C292.987 302.34 288.232 305.926 283.203 305.926Z" fill="url(#paint1_linear_0_260)"/>
<path d="M217.992 240.306H205.145C204.438 240.327 203.761 240.559 203.224 240.963C202.687 241.368 202.323 241.922 202.192 242.533L195.214 279.444C195.146 279.717 195.151 280.001 195.226 280.272C195.302 280.543 195.447 280.796 195.651 281.011C195.855 281.226 196.112 281.397 196.401 281.512C196.692 281.626 197.008 281.68 197.325 281.671H210.173C210.88 281.65 211.557 281.418 212.094 281.013C212.631 280.608 212.995 280.055 213.126 279.444L220.104 242.533C220.171 242.26 220.167 241.977 220.091 241.705C220.016 241.433 219.87 241.18 219.666 240.966C219.463 240.751 219.207 240.58 218.916 240.466C218.626 240.351 218.31 240.296 217.992 240.306Z" fill="white"/>
<path d="M241.432 252.935H228.585C227.878 252.956 227.201 253.188 226.664 253.593C226.127 253.997 225.763 254.551 225.631 255.162L221.041 279.444C220.974 279.717 220.978 280.001 221.054 280.272C221.129 280.543 221.275 280.796 221.479 281.011C221.682 281.226 221.938 281.397 222.229 281.512C222.519 281.626 222.835 281.68 223.153 281.671H236C236.707 281.65 237.384 281.418 237.921 281.013C238.458 280.608 238.822 280.055 238.953 279.444L243.543 255.162C243.611 254.889 243.607 254.605 243.531 254.334C243.455 254.062 243.31 253.81 243.107 253.595C242.903 253.38 242.646 253.208 242.356 253.094C242.066 252.98 241.75 252.926 241.432 252.935Z" fill="white"/>
<path d="M272.46 217.402H259.613C258.907 217.423 258.23 217.655 257.692 218.06C257.156 218.465 256.791 219.018 256.66 219.629L245.353 279.444C245.286 279.717 245.289 280.001 245.366 280.272C245.441 280.543 245.586 280.796 245.79 281.011C245.994 281.226 246.25 281.397 246.54 281.512C246.831 281.626 247.147 281.68 247.464 281.671H260.311C261.019 281.65 261.696 281.418 262.232 281.013C262.77 280.608 263.133 280.055 263.265 279.444L274.572 219.629C274.64 219.356 274.635 219.072 274.56 218.801C274.484 218.53 274.339 218.277 274.135 218.062C273.932 217.847 273.675 217.676 273.384 217.561C273.095 217.447 272.778 217.393 272.46 217.402Z" fill="white"/>
<path d="M294.57 232.907H281.722C281.016 232.928 280.338 233.16 279.801 233.565C279.265 233.97 278.9 234.523 278.769 235.134L270.393 279.444C270.326 279.717 270.329 280.001 270.406 280.272C270.481 280.543 270.626 280.796 270.83 281.011C271.033 281.226 271.29 281.397 271.58 281.512C271.871 281.626 272.187 281.68 272.504 281.671H285.351C286.058 281.65 286.736 281.418 287.273 281.013C287.81 280.608 288.174 280.055 288.305 279.444L296.681 235.134C296.749 234.861 296.744 234.578 296.669 234.306C296.593 234.035 296.448 233.782 296.244 233.567C296.04 233.352 295.784 233.181 295.494 233.067C295.204 232.952 294.888 232.898 294.57 232.907Z" fill="white"/>
<path d="M210.688 197.588H245.471" stroke="white" stroke-width="10" stroke-miterlimit="10" stroke-linecap="round"/>
<path d="M208.725 207.975H226.117" stroke="white" stroke-width="10" stroke-miterlimit="10" stroke-linecap="round"/>
<path opacity="0.6" d="M198.964 289.193H205.691" stroke="white" stroke-width="6" stroke-miterlimit="10" stroke-linecap="round"/>
<path opacity="0.6" d="M224.792 289.193H231.519" stroke="white" stroke-width="6" stroke-miterlimit="10" stroke-linecap="round"/>
<path opacity="0.6" d="M249.103 289.193H255.83" stroke="white" stroke-width="6" stroke-miterlimit="10" stroke-linecap="round"/>
<path opacity="0.6" d="M274.141 289.193H280.869" stroke="white" stroke-width="6" stroke-miterlimit="10" stroke-linecap="round"/>
<path d="M406.799 305.926H312.574C307.545 305.926 304.146 302.34 304.982 297.917L324.882 192.646C325.718 188.223 330.473 184.637 335.502 184.637H429.728C434.757 184.637 438.156 188.223 437.32 192.646L417.42 297.917C416.584 302.34 411.829 305.926 406.799 305.926Z" fill="url(#paint2_linear_0_260)"/>
<path d="M339.149 256.176H326.302C325.595 256.197 324.917 256.429 324.381 256.834C323.844 257.238 323.48 257.792 323.349 258.403L318.812 279.444C318.744 279.717 318.748 280.001 318.824 280.272C318.9 280.544 319.045 280.796 319.249 281.011C319.453 281.226 319.709 281.398 319.999 281.512C320.289 281.626 320.605 281.68 320.923 281.671H333.77C334.477 281.65 335.155 281.418 335.691 281.013C336.228 280.608 336.592 280.055 336.724 279.444L341.261 258.403C341.328 258.13 341.324 257.846 341.248 257.575C341.172 257.303 341.027 257.051 340.823 256.836C340.62 256.621 340.363 256.449 340.073 256.335C339.783 256.221 339.467 256.166 339.149 256.176Z" fill="white"/>
<path d="M369.881 223.594H357.034C356.328 223.614 355.65 223.846 355.113 224.251C354.576 224.656 354.212 225.209 354.081 225.82L344.639 279.444C344.572 279.717 344.576 280.001 344.651 280.272C344.727 280.544 344.872 280.796 345.076 281.011C345.279 281.226 345.536 281.397 345.827 281.512C346.117 281.626 346.433 281.68 346.751 281.671H359.598C360.304 281.65 360.982 281.418 361.519 281.013C362.056 280.608 362.42 280.055 362.551 279.444L371.993 225.82C372.061 225.547 372.056 225.264 371.981 224.992C371.905 224.721 371.76 224.468 371.556 224.253C371.353 224.039 371.096 223.867 370.805 223.753C370.515 223.639 370.199 223.584 369.881 223.594Z" fill="white"/>
<path d="M391.808 238.904H378.961C378.254 238.925 377.577 239.157 377.04 239.562C376.503 239.967 376.139 240.52 376.007 241.131L368.951 279.444C368.883 279.717 368.888 280.001 368.963 280.272C369.039 280.544 369.184 280.797 369.388 281.011C369.592 281.226 369.849 281.398 370.138 281.512C370.429 281.626 370.744 281.681 371.062 281.671H383.91C384.616 281.65 385.294 281.419 385.831 281.014C386.367 280.609 386.732 280.055 386.863 279.444L393.92 241.131C393.987 240.858 393.983 240.575 393.907 240.303C393.831 240.032 393.686 239.779 393.483 239.564C393.279 239.349 393.022 239.178 392.732 239.064C392.442 238.949 392.126 238.895 391.808 238.904Z" fill="white"/>
<path d="M418.168 232.907H405.321C404.613 232.928 403.936 233.16 403.399 233.565C402.862 233.97 402.499 234.523 402.367 235.134L393.991 279.444C393.923 279.717 393.927 280.001 394.003 280.272C394.079 280.543 394.224 280.796 394.428 281.011C394.632 281.226 394.888 281.397 395.178 281.512C395.469 281.626 395.784 281.68 396.102 281.671H408.949C409.656 281.65 410.334 281.418 410.87 281.013C411.407 280.608 411.771 280.055 411.903 279.444L420.279 235.134C420.346 234.861 420.342 234.578 420.267 234.306C420.191 234.035 420.046 233.782 419.842 233.567C419.638 233.352 419.382 233.181 419.092 233.067C418.801 232.952 418.485 232.898 418.168 232.907Z" fill="white"/>
<path d="M334.286 197.588H369.068" stroke="white" stroke-width="10" stroke-miterlimit="10" stroke-linecap="round"/>
<path d="M332.323 207.975H349.714" stroke="white" stroke-width="10" stroke-miterlimit="10" stroke-linecap="round"/>
<path opacity="0.6" d="M322.561 289.193H329.288" stroke="white" stroke-width="6" stroke-miterlimit="10" stroke-linecap="round"/>
<path opacity="0.6" d="M348.389 289.193H355.116" stroke="white" stroke-width="6" stroke-miterlimit="10" stroke-linecap="round"/>
<path opacity="0.6" d="M372.701 289.193H379.428" stroke="white" stroke-width="6" stroke-miterlimit="10" stroke-linecap="round"/>
<path opacity="0.6" d="M397.739 289.193H404.467" stroke="white" stroke-width="6" stroke-miterlimit="10" stroke-linecap="round"/>
<path d="M6.84414 424.235L33.6003 473.461L30.2822 474.857C29.162 475.327 27.8756 475.388 26.7054 475.024C25.5352 474.661 24.5768 473.903 24.042 472.919L1.32122 431.119C0.786425 430.134 0.717705 429.002 1.13067 427.973C1.54427 426.944 2.4052 426.101 3.5254 425.63L6.84414 424.235Z" fill="#71C8EA"/>
<path d="M35.9729 413.12L17.5073 419.833L27.8665 432.717L44.2366 428.324L35.9729 413.12Z" fill="#FFCCB3"/>
<path d="M24.1783 420.347C24.1783 420.347 31.3874 430.14 32.4752 435.612C33.5629 441.083 37.2871 468.762 36.285 471.257C35.5646 473.05 32.9481 473.82 31.2881 473.982C30.9239 474.017 30.5565 473.95 30.2373 473.792C29.918 473.635 29.6618 473.393 29.5057 473.102L5.21794 428.418C4.81185 427.672 4.75499 426.817 5.05863 426.035C5.36289 425.252 6.00327 424.607 6.84357 424.235C10.2036 422.751 15.3435 420.526 17.5077 419.833C20.8527 418.762 23.0606 418.769 24.1783 420.347Z" fill="#5661AE"/>
<path d="M154.896 443.774L129.804 484.51C129.212 485.47 128.212 486.184 127.022 486.495C125.833 486.806 124.551 486.689 123.46 486.169L120.226 484.628L149.777 436.654L153.011 438.194C154.102 438.714 154.914 439.594 155.267 440.641C155.621 441.687 155.488 442.814 154.896 443.774Z" fill="#71C8EA"/>
<path d="M121.322 424.258L139.379 431.783L128.292 444.19L112.195 439.075L121.322 424.258Z" fill="#FFCCB3"/>
<path d="M132.688 432C132.688 432 124.925 441.46 123.525 446.876C122.125 452.293 116.815 479.77 117.672 482.307C118.288 484.13 120.857 485.014 122.506 485.251C122.867 485.301 123.238 485.251 123.566 485.108C123.894 484.964 124.163 484.735 124.336 484.451L151.161 440.903C151.609 440.177 151.715 439.324 151.457 438.53C151.198 437.735 150.595 437.062 149.778 436.654C146.507 435.022 141.501 432.571 139.38 431.783C136.101 430.565 133.895 430.474 132.688 432Z" fill="#5661AE"/>
<path d="M175.72 366.228C175.72 366.228 182.633 396.417 177.269 402.332L40.5795 433.114L28.9233 413.912L108.744 382.057L124.73 362.788L175.72 366.228Z" fill="#D1E8F7"/>
<path d="M141.13 387.77L110.971 396.641L96.8983 401.83L115.199 416.31L98.8376 419.561L54.21 387.77H141.13Z" fill="#5CA4E6"/>
<path d="M37.4887 411.394L38.4165 414.229L59.6085 428.777L79.5154 424.504C79.5154 424.504 41.113 408.432 37.4887 411.394Z" fill="#5CA4E6"/>
<path d="M75.8518 364.467C75.8518 364.467 37.2007 362.623 18.0429 364.104C5.70696 365.058 1.2599 392.82 11.1043 397.871L116.756 445.446L129.206 425.66L61.0511 385.087L109.811 379.055L75.8518 364.467Z" fill="#D1E8F7"/>
<path d="M21.2919 400.235C32.7063 400.235 41.9597 392.097 41.9597 382.057C41.9597 372.019 32.7063 363.88 21.2919 363.88C9.8768 363.88 0.623413 372.019 0.623413 382.057C0.623413 392.097 9.8768 400.235 21.2919 400.235Z" fill="#D1E8F7"/>
<path d="M173.834 402.582C185.248 402.582 194.502 394.444 194.502 384.405C194.502 374.366 185.248 366.228 173.834 366.228C162.419 366.228 153.166 374.366 153.166 384.405C153.166 394.444 162.419 402.582 173.834 402.582Z" fill="#D1E8F7"/>
<path d="M117.217 298.631C115.04 289.178 120.16 289.421 121.865 287.918C121.865 287.918 128.257 283.282 133.129 287.604C138.285 292.175 167.842 327.687 167.842 327.687L149.348 342.646L145.872 338.997L136.867 329.552L127.236 319.458L126.039 318.309L113.047 305.366C113.047 305.366 118.449 303.608 117.217 298.631Z" fill="#5661AE"/>
<path d="M127.474 308.125C134.917 305.932 138.929 298.849 136.436 292.303C133.944 285.757 125.889 282.228 118.446 284.42C111.003 286.613 106.99 293.696 109.483 300.242C111.976 306.788 120.031 310.317 127.474 308.125Z" fill="#5661AE"/>
<path d="M126.209 318.258C125.836 316.282 125.09 312.331 124.287 308.729L120.021 291.298C120.021 291.298 131.48 306.193 136.76 316.569C140.67 324.344 145.206 332.269 145.956 338.972L136.952 329.528L127.32 319.433L126.209 318.258Z" fill="#465393"/>
<path d="M186.314 287.707C190.708 280.657 188.597 279.46 190.466 275.45C192.308 271.536 189.038 261.834 192.168 263.158C195.298 264.48 196.267 267.996 196.267 267.996C198.408 264.665 200.38 258.536 205.505 257.834C210.631 257.133 211.085 258.552 213.99 260.649C221.719 266.304 211.863 274.804 210.218 278.04C209.16 280.069 201.384 286.254 200.522 287.606L196.608 292.6L186.314 287.707Z" fill="#FFCCB3"/>
<path d="M201.413 268.433L207.659 258.292L201.413 268.433Z" fill="#E56441"/>
<path d="M201.413 268.433L207.659 258.292" stroke="#E56441" stroke-width="0.94666" stroke-linecap="round"/>
<path d="M205.505 270.075L212.313 260.63L205.505 270.075Z" fill="#E56441"/>
<path d="M205.505 270.075L212.313 260.63" stroke="#E56441" stroke-width="0.94666" stroke-linecap="round"/>
<path d="M210.368 271.891L214.258 266.171L210.368 271.891Z" fill="#E56441"/>
<path d="M210.368 271.891L214.258 266.171" stroke="#E56441" stroke-width="0.94666" stroke-linecap="round"/>
<path d="M199.87 277.361C199.837 273.849 197.441 269.6 197.441 269.6L199.87 277.361Z" fill="#E56441"/>
<path d="M199.87 277.361C199.837 273.849 197.441 269.6 197.441 269.6" stroke="#E56441" stroke-width="0.94666" stroke-linecap="round"/>
<path d="M149.191 327.404L186.797 283.36C187.036 283.101 187.377 282.93 187.752 282.878C188.126 282.827 188.51 282.899 188.827 283.082L198.675 288.809C199.143 289.088 199.476 289.51 199.61 289.993C199.745 290.476 199.67 290.985 199.4 291.423L169.158 340.472L149.191 327.404Z" fill="#5661AE"/>
<path d="M158.328 346.008C165.283 346.008 170.922 341.049 170.922 334.932C170.922 328.815 165.283 323.856 158.328 323.856C151.373 323.856 145.734 328.815 145.734 334.932C145.734 341.049 151.373 346.008 158.328 346.008Z" fill="#5661AE"/>
<path d="M102.483 278.182C102.483 278.182 123.587 283.094 127.209 284.368C130.832 285.643 131.074 290.74 131.315 294.351C131.557 297.962 130.746 379.055 130.746 379.055L84.0407 377.476L49.1126 359.495C49.1126 359.495 50.6314 295.15 51.1144 292.176C51.5973 289.203 47.8019 286.642 51.9159 285.145L78.3622 279.001L102.483 278.182Z" fill="#5661AE"/>
<path d="M67.3384 307.071L67.7145 366.986L47.6359 347.304L57.3503 305.207L67.3384 307.071Z" fill="#465393"/>
<path d="M74.919 279.917C74.919 279.917 71.9314 285.201 74.919 288.846C77.9066 292.491 89.8671 296.033 98.0384 295.928C106.209 295.824 110.539 288.973 106.834 279.38L93.3015 276.037L78.3633 279.001L74.919 279.917Z" fill="#465393"/>
<path d="M108.744 234.376C108.744 234.376 114.628 245.543 108.353 247.849C102.077 250.156 102.808 234.918 108.744 234.376Z" fill="#93523E"/>
<path d="M102.108 270.108L103.81 286.99C103.81 286.99 105.442 289.253 99.0865 290.441C94.998 291.206 83.9884 287.391 81.8524 286.246C80.9439 285.822 80.2323 285.133 79.84 284.297C79.4476 283.461 79.3989 282.531 79.7019 281.667C80.3511 279.601 83.0413 262.391 83.0413 262.391L102.108 270.108Z" fill="#FFCCB3"/>
<path d="M102.433 273.363L92.292 268.957L103.598 284.908L102.433 273.363Z" fill="#FF967C"/>
<path d="M105.365 237.607C105.365 237.607 111.316 250.734 113.475 259.943C115.653 269.233 112.178 271.554 107.592 272.92C103.976 273.998 98.2004 274.857 94.2719 273.775C87.1077 271.803 80.0991 266.11 78.4229 264.94C75.8276 263.13 73.2654 254.918 77.069 250.272C80.8732 245.626 95.8607 231.026 105.365 237.607Z" fill="#FFCCB3"/>
<path d="M97.7022 255.726C98.4938 255.452 98.7499 254.369 98.2745 253.306C97.799 252.244 96.7725 251.605 95.981 251.878C95.1894 252.152 94.9332 253.235 95.4081 254.298C95.8835 255.361 96.9106 256 97.7022 255.726Z" fill="#080B09"/>
<path d="M108.581 251.892C109.372 251.618 109.628 250.535 109.153 249.473C108.678 248.41 107.651 247.771 106.859 248.045C106.068 248.319 105.812 249.402 106.287 250.465C106.762 251.527 107.789 252.166 108.581 251.892Z" fill="#080B09"/>
<path d="M104.591 253.705C104.591 253.705 103.624 256.277 105.656 256.027C107.587 255.729 108.898 256.568 107.211 258.292" fill="#E56441"/>
<path d="M104.591 253.705C104.591 253.705 103.624 256.277 105.656 256.027C107.587 255.729 108.898 256.568 107.211 258.292" stroke="#E56441" stroke-width="0.94666" stroke-linecap="round"/>
<path d="M107.306 260.566L107.316 260.564L107.326 260.561C107.354 260.554 107.384 260.553 107.412 260.559C107.441 260.565 107.467 260.577 107.488 260.596C107.51 260.614 107.525 260.636 107.533 260.661C107.541 260.686 107.541 260.713 107.534 260.737L107.528 260.759L107.525 260.781C107.401 261.907 107.082 262.576 106.695 262.952C106.322 263.315 105.853 263.436 105.322 263.401C104.776 263.364 104.177 263.162 103.597 262.884C103.023 262.61 102.49 262.273 102.078 261.984C102.05 261.961 102.03 261.932 102.018 261.9C102.006 261.866 102.005 261.83 102.015 261.796C102.024 261.761 102.045 261.73 102.073 261.705C102.102 261.68 102.137 261.662 102.177 261.654L102.18 261.653C103.75 261.303 106.119 260.812 107.306 260.566Z" fill="#E56441" stroke="#E56441"/>
<path d="M90.8102 251.228L90.9589 251.412C91.1494 251.696 91.4599 251.903 91.8229 251.986C92.1853 252.07 92.5714 252.023 92.8956 251.858L98.3854 248.883C98.6578 248.749 98.8628 248.529 98.9602 248.268C99.0571 248.007 99.0396 247.724 98.9102 247.474C98.839 247.317 98.7316 247.176 98.5935 247.059C98.456 246.942 98.2917 246.852 98.1112 246.795C97.9312 246.738 97.7394 246.715 97.5483 246.728C97.3571 246.741 97.1715 246.789 97.0035 246.87L91.365 249.661C91.2094 249.731 91.0713 249.826 90.9582 249.943C90.8458 250.06 90.7608 250.195 90.7096 250.342C90.6577 250.488 90.6396 250.642 90.6571 250.794C90.6746 250.946 90.7265 251.094 90.8102 251.228Z" fill="#080B09"/>
<path d="M109.775 243.6L103.333 244.125C103.142 244.143 102.958 244.196 102.792 244.281C102.627 244.365 102.484 244.48 102.373 244.617C102.261 244.754 102.185 244.91 102.147 245.076C102.11 245.241 102.112 245.411 102.155 245.575C102.21 245.845 102.379 246.088 102.627 246.254C102.877 246.42 103.187 246.498 103.498 246.472L109.937 246.172C110.311 246.146 110.658 245.991 110.902 245.741C111.147 245.49 111.269 245.166 111.241 244.837L111.245 244.611C111.227 244.459 111.174 244.311 111.09 244.177C111.006 244.043 110.891 243.926 110.754 243.831C110.617 243.737 110.46 243.668 110.291 243.628C110.123 243.588 109.948 243.579 109.775 243.6Z" fill="#080B09"/>
<path d="M97.978 240.226C97.978 240.226 94.7624 245.608 88.9283 247.203C83.0943 248.8 86.2824 256.898 86.2824 256.898C86.2824 256.898 82.2821 253.397 77.6838 255.368C73.0849 257.338 76.5755 265.07 82.9287 265.168L81.2006 273.868C81.2006 273.868 77.9831 270.344 74.5993 268.459C71.215 266.573 59.059 259.254 64.4288 249.613C64.4288 249.613 60.2273 236.078 71.7504 229.059C83.2736 222.042 93.2473 224.69 93.2473 224.69C93.2473 224.69 95.9944 220.858 102.362 221.64C108.73 222.423 110.198 232.521 108.089 236.173C105.981 239.825 102.544 241.378 97.978 240.226Z" fill="#93523E"/>
<path d="M49.97 294.179C58.0738 287.679 60.4667 291.668 62.8089 292.182C62.8089 292.182 70.616 294.623 68.9029 300.519C67.0923 306.758 47.6359 347.304 47.6359 347.304L23.5419 341.036L25.3149 336.539L29.902 324.892L34.8014 312.439L35.3074 310.945L41.2577 294.493C41.2577 294.493 45.7479 297.665 49.97 294.179Z" fill="#5661AE"/>
<path d="M66.0183 305.429C71.1232 300.185 70.4272 292.294 64.4645 287.805C58.5017 283.315 49.5295 283.927 44.4252 289.171C39.3202 294.415 40.0156 302.306 45.979 306.796C51.9417 311.285 60.9133 310.673 66.0183 305.429Z" fill="#5661AE"/>
<path d="M45.2509 337.345L89.9828 375.895C90.2433 376.138 90.392 376.457 90.4008 376.791C90.4095 377.124 90.2777 377.449 90.0303 377.702L82.2863 385.539C81.9109 385.911 81.3917 386.146 80.8294 386.2C80.2677 386.253 79.7029 386.122 79.2456 385.83L27.9081 353.046L45.2509 337.345Z" fill="#5661AE"/>
<path d="M35.5697 355.403C42.5252 355.403 48.1637 350.445 48.1637 344.328C48.1637 338.211 42.5252 333.252 35.5697 333.252C28.6148 333.252 22.9763 338.211 22.9763 344.328C22.9763 350.445 28.6148 355.403 35.5697 355.403Z" fill="#5661AE"/>
<path d="M108.344 329.919L84.0674 389.07H35.2558C35.2558 387.264 36.0717 385.532 37.5237 384.255C38.9763 382.977 40.9455 382.26 42.9991 382.26H78.3127L99.2754 329.919H108.344Z" fill="white"/>
<path d="M108.344 329.919H173.835L148.507 389.07H84.0677L108.344 329.919Z" fill="url(#paint3_linear_0_260)"/>
<path d="M199.79 137.017C199.79 137.017 210.702 134.996 214.164 139.663C217.625 144.33 221.086 153.098 228.931 151.961C236.776 150.824 242.775 127.893 250.62 128.096C258.466 128.299 255.004 143.316 263.542 143.518C272.079 143.721 270.003 135.199 276.925 135.199C283.847 135.199 281.539 153.462 290.539 153.665C299.538 153.868 298.614 130.125 312.228 130.531" stroke="white" stroke-width="5" stroke-miterlimit="10" stroke-linecap="round"/>
<path d="M167.935 133.862C173.492 121.857 168.142 108.597 155.985 104.244C143.827 99.891 129.467 106.094 123.91 118.099C118.352 130.105 123.703 143.365 135.86 147.718C148.018 152.071 162.378 145.867 167.935 133.862Z" stroke="#FF967C" stroke-width="16.5208" stroke-miterlimit="10" stroke-linecap="round"/>
<path d="M157.242 145.479C150.828 149.2 142.968 150.262 135.86 147.718C123.703 143.365 118.352 130.105 123.91 118.099C129.467 106.094 143.827 99.891 155.985 104.244" stroke="white" stroke-width="16.5208" stroke-miterlimit="10" stroke-linecap="round"/>
<path d="M207.992 102.853H256.009" stroke="white" stroke-width="10" stroke-miterlimit="10" stroke-linecap="round"/>
<path opacity="0.6" d="M205.718 114.501H225.253" stroke="white" stroke-width="10" stroke-miterlimit="10" stroke-linecap="round"/>
<path d="M571.521 392.375C571.384 392.388 571.321 392.455 571.396 392.51C571.334 392.577 571.334 392.577 571.353 392.699C571.059 393.536 570.853 394.395 570.734 395.265L582.58 403.638L583.892 402.342C583.892 402.342 579.518 397.585 577.881 396.202C577.175 395.592 576.544 395.036 575.913 394.48C575.364 393.978 574.87 393.409 574.395 392.962C573.733 392.162 571.815 392.47 571.796 392.348C571.721 392.294 571.521 392.375 571.521 392.375Z" fill="#233B62"/>
<path d="M481.947 319.62L493.387 329.369L557.344 383.689L558.512 384.624L559.018 385.315L559.093 385.369L568.152 397.441L569.165 398.822L569.502 399.283L575.631 407.506L570.583 409.715L569.121 410.348L567.059 411.224L563.804 412.705L563.748 412.772L560.293 414.335L560.124 414.105L552.252 400.872C550.728 398.316 548.585 396.083 545.98 394.326L476.431 347.504L463.212 338.604L481.947 319.62Z" fill="#FFCCB3"/>
<path d="M567.278 385.818C564.211 384.566 560.768 383.446 557.407 383.621C559.431 385.183 560.356 387.962 561.699 389.988C564.454 394.157 571.521 401.907 567.909 408.492C565.879 412.193 560.206 414.159 560.125 414.104C559.175 417.905 554.471 433.374 563.855 424.407C569.096 419.399 574.294 414.05 576.906 408.74C577.981 406.563 575.713 404.392 574.601 402.554C573.176 399.772 571.052 396.089 571.321 393.01L571.377 392.942C571.533 392.729 583.685 402.297 583.891 402.342C584.309 401.747 585.284 400.545 585.284 400.545C585.284 400.545 567.859 386.009 567.278 385.818Z" fill="#1C85E8"/>
<path d="M436.409 436.421C436.299 436.345 436.201 436.356 436.213 436.441C436.116 436.452 436.116 436.452 436.03 436.549C435.156 436.968 434.325 437.455 433.549 438.004L435.36 451.276L437.327 451.155C437.327 451.155 437.985 445.066 437.911 443.067C437.891 442.197 437.883 441.413 437.875 440.628C437.88 439.93 437.981 439.221 437.997 438.609C438.161 437.632 436.542 436.669 436.628 436.572C436.616 436.486 436.409 436.421 436.409 436.421Z" fill="#233B62"/>
<path d="M430.234 329.329L430.656 343.33L433.183 421.494L433.273 422.88L433.085 423.685L433.097 423.771L429.975 437.972L429.6 439.582L429.474 440.119L427.319 449.768L421.951 448.241L420.403 447.794L418.232 447.15L414.731 446.211L414.634 446.221L410.925 445.217L410.988 444.948L415.882 430.648C416.822 427.881 417.068 424.968 416.602 422.109L404.119 345.868L401.745 331.374L430.234 329.329Z" fill="#FFCCB3"/>
<path d="M438.588 429.124C437.392 426.344 435.823 423.428 433.28 421.484C433.487 423.847 431.938 426.402 431.285 428.674C429.94 433.35 428.83 443.236 421.012 445.723C416.619 447.12 410.998 445.034 410.987 444.948C407.286 447.081 391.62 455.243 405.459 454.605C413.187 454.248 421.157 453.622 427.247 451.434C429.744 450.537 429.851 447.591 430.517 445.593C431.712 442.729 433.119 438.787 435.759 436.751L435.857 436.741C436.137 436.684 437.215 450.996 437.327 451.155C438.098 450.987 439.749 450.725 439.749 450.725C439.749 450.725 438.854 429.62 438.588 429.124Z" fill="#1C85E8"/>
<path d="M413.001 224.277L390.392 308.245L390.35 314.206L408.735 413.632L438.008 410.845L429.516 315.887L452.806 266.342L448.097 225.712L413.001 224.277Z" fill="#1F2D49"/>
<path d="M409.835 328.639C420.754 328.639 429.606 320.855 429.606 311.252C429.606 301.65 420.754 293.865 409.835 293.865C398.916 293.865 390.065 301.65 390.065 311.252C390.065 320.855 398.916 328.639 409.835 328.639Z" fill="#1F2D49"/>
<path d="M436.937 300.102L431.361 258.615L429.517 315.887L436.937 300.102Z" fill="#0D1B33"/>
<path d="M474.033 224.014C474.033 224.014 484.573 239.589 484.71 252.632C484.923 272.208 476.895 307.309 476.895 307.309L546.987 369.616L530.3 391.62C530.3 391.62 470.491 347.976 445.185 327.246L439.516 317.153L431.362 258.615L443.826 224.014H474.033Z" fill="#1F2D49"/>
<path d="M413.002 224.277L474.395 224.832L480.361 235.69L411.964 228.13L413.002 224.277Z" fill="#0D1B33"/>
<path d="M459.109 332.292C470.028 332.292 478.88 324.507 478.88 314.905C478.88 305.302 470.028 297.518 459.109 297.518C448.19 297.518 439.339 305.302 439.339 314.905C439.339 324.507 448.19 332.292 459.109 332.292Z" fill="#1F2D49"/>
<path d="M405.835 108.891C405.835 108.891 406.659 116.962 404.238 124.72C401.816 132.478 383.481 148.907 399.741 162.294C416 175.68 435.891 139.78 435.891 139.78L429.664 123.198L408.131 103.496L405.835 108.891Z" fill="#1F2D49"/>
<path d="M455.442 110.775C455.442 110.775 460.321 116.226 471.44 120.682C482.348 125.056 494.094 132.244 491.676 147.912C489.252 163.58 457.003 151.411 447.528 142.435C438.054 133.461 439.357 117.436 439.357 117.436L455.442 110.775Z" fill="#1F2D49"/>
<path d="M430.5 140.134C430.5 140.134 418.124 144.441 416.234 145.77C414.345 147.099 412.551 157.949 409.338 163.101C406.126 168.252 401.427 177.761 408.29 186.495C415.154 195.228 414.424 202.164 414.424 202.164L412.964 224.073L472.114 225.031C472.639 225.046 473.158 224.963 473.639 224.788C474.12 224.613 474.551 224.35 474.913 224.017C475.27 223.684 475.538 223.287 475.713 222.854C475.882 222.421 475.944 221.961 475.901 221.505C475.245 215.117 472.239 206.146 472.002 195.975C471.683 182.19 471.446 136.13 471.446 136.13L445.676 135.418C440.485 136.206 430.5 140.134 430.5 140.134Z" fill="#05555E"/>
<path d="M461.303 154.958C461.303 154.958 452.683 161.871 452.175 167C451.669 172.128 450.496 186.428 439.417 187.854C425.838 189.603 422.283 191.305 428.579 192.643C434.873 193.981 449.16 191.813 449.16 197.548C449.16 201.63 454.711 204.684 457.5 202.454C460.289 200.224 482.505 166.33 461.303 154.958Z" fill="#05555E"/>
<path d="M357.335 160.752L352.662 155.491C351.683 154.26 350.382 153.253 348.869 152.557C346.569 151.544 343.043 149.655 341.818 147.767C339.788 144.766 331.786 136.66 338.727 130.36C341.296 128.034 340.654 128.584 345.79 128.654C350.927 128.723 351.715 133.411 354.281 136.479C354.281 136.479 354.858 132.94 357.695 131.323C360.533 129.706 358.65 139.582 360.833 143.325C363.015 147.068 361.251 148.483 366.423 155.059L357.335 160.752Z" fill="#FFCCB3"/>
<path d="M345.009 129.194L349.183 137.522L345.009 129.194Z" fill="#E56441"/>
<path d="M345.009 129.194L349.183 137.522" stroke="#E56441" stroke-width="0.94666" stroke-linecap="round"/>
<path d="M339.564 130.675L345.348 139.543L339.564 130.675Z" fill="#E56441"/>
<path d="M339.564 130.675L345.348 139.543" stroke="#E56441" stroke-width="0.94666" stroke-linecap="round"/>
<path d="M336.15 136.506L340.708 141.8L336.15 136.506Z" fill="#E56441"/>
<path d="M336.15 136.506L340.708 141.8" stroke="#E56441" stroke-width="0.94666" stroke-linecap="round"/>
<path d="M353.207 138.366C353.207 138.366 351.441 142.816 351.746 146.322L353.207 138.366Z" fill="#E56441"/>
<path d="M353.207 138.366C353.207 138.366 351.441 142.816 351.746 146.322" stroke="#E56441" stroke-width="0.94666" stroke-linecap="round"/>
<path d="M419.241 144.337C414.443 145.799 407.755 148.766 405.944 152.076L389.952 184.116L363.319 148.525L353.234 157.868L378.106 203.11C382.651 213.059 394.197 216.797 402.56 206.075L415.923 187.617L419.241 144.337Z" fill="#05555E"/>
<path d="M412.421 171.918C412.421 171.918 410.979 169.73 410.979 181.148L402.56 206.075L415.922 187.617C426.642 174.942 418.173 171.557 412.421 171.918Z" fill="#FF967C"/>
<path d="M441.739 156.8L397.564 172.275C396.191 172.756 395.522 174.125 396.069 175.331L418.179 224.15C418.726 225.357 420.281 225.946 421.654 225.465L465.83 209.989C467.202 209.509 467.872 208.141 467.325 206.933L445.214 158.115C444.668 156.908 443.112 156.32 441.739 156.8Z" fill="#1C85E8"/>
<path d="M404.305 176.867L422.521 170.486" stroke="white" stroke-width="4" stroke-miterlimit="10" stroke-linecap="round"/>
<path d="M407.056 182.603L415.359 179.694" stroke="white" stroke-width="4" stroke-miterlimit="10" stroke-linecap="round"/>
<path d="M428.935 128.657L429.63 145.783C429.63 145.783 428.678 149.533 433.055 149.117C437.431 148.701 443.323 145.671 446.635 142.342C449.946 139.013 449.72 138.746 448.301 136.562C446.881 134.378 440.218 117.729 440.218 117.729L428.935 128.657Z" fill="#FFCCB3"/>
<path d="M429.033 130.094L437.102 125.574C437.102 125.574 433.526 139.375 429.629 145.783L429.033 130.094Z" fill="#FCBA9F"/>
<path d="M407.276 103.029C407.276 103.029 407.147 120.072 415.508 128.65C420.961 134.243 426.697 133.501 436.265 124.293C445.038 115.849 446.268 111.448 446.268 111.448L440.211 94.7274C440.211 94.7274 408.26 87.5175 407.276 103.029Z" fill="#FFCCB3"/>
<path d="M415.596 99.0748C415.596 99.0748 419.099 106.555 425.603 108.645C432.107 110.735 433.809 114.622 433.809 114.622C433.809 114.622 435.057 108.227 440.168 108.459C445.28 108.691 444.241 116.628 441.069 119.263C441.069 119.263 444.885 125.489 448.122 130.094L462.296 117.722C462.296 117.722 454.993 110.297 453.387 104.323C451.781 98.3489 446.585 82.3553 426.773 83.4147C403.512 84.6581 404.847 101.282 405.836 110.515C405.836 110.515 413.13 108.055 415.596 99.0748Z" fill="#1F2D49"/>
<path d="M418.114 123.379L423.768 120.94C423.773 120.968 423.778 120.998 423.782 121.029C423.821 121.29 423.839 121.649 423.757 122.043C423.599 122.814 423.059 123.75 421.452 124.357C420.421 124.651 419.541 124.361 418.895 123.975C418.572 123.781 418.314 123.567 418.137 123.401C418.129 123.394 418.121 123.386 418.114 123.379Z" fill="#E56441" stroke="#E56441"/>
<path d="M411.954 116.458C412.668 116.302 413.037 115.426 412.777 114.499C412.517 113.573 411.727 112.948 411.012 113.103C410.297 113.258 409.929 114.135 410.189 115.062C410.449 115.987 411.239 116.613 411.954 116.458Z" fill="#080B09"/>
<path d="M422.549 114.298C423.264 114.143 423.633 113.266 423.372 112.34C423.112 111.414 422.323 110.789 421.608 110.943C420.893 111.099 420.525 111.975 420.784 112.902C421.044 113.828 421.835 114.453 422.549 114.298Z" fill="#080B09"/>
<path d="M407.844 111.463L413.236 110.375C413.326 110.349 413.402 110.296 413.452 110.225C413.5 110.154 413.518 110.07 413.502 109.988C413.442 109.849 413.35 109.721 413.233 109.614C413.115 109.507 412.974 109.421 412.819 109.363C412.662 109.304 412.494 109.275 412.325 109.275C412.155 109.275 411.988 109.306 411.832 109.365L407.604 110.94C407.251 111.016 407.404 111.559 407.844 111.463Z" fill="#080B09"/>
<path d="M425.948 107.218L418.925 109.154C418.878 108.961 418.878 108.761 418.924 108.569C418.97 108.376 419.061 108.193 419.193 108.033C419.324 107.873 419.491 107.739 419.685 107.639C419.879 107.54 420.093 107.477 420.316 107.455L425.927 106.812C426.104 106.774 426.212 107.161 425.948 107.218Z" fill="#080B09"/>
<path d="M415.736 113.36L414.974 118.361L416.983 119.214" fill="#E56441"/>
<path d="M415.736 113.36L414.974 118.361L416.983 119.214" stroke="#E56441" stroke-width="0.94666" stroke-linecap="round"/>
<path d="M421.082 201.04L403.665 205.435L401.536 214.874L405.498 225.321C405.498 225.321 408.284 223.673 407.703 219.828C407.122 215.982 421.84 216.092 424.538 211.258" fill="#FFCCB3"/>
<path d="M460.867 149.014C460.867 149.014 460.753 136.039 472.57 136.038C480.498 136.036 484.29 139.305 485.302 149.505C486.008 156.637 486.521 195.765 486.521 195.765C486.521 195.765 488.514 213.623 471.289 213.957L421.555 212.647L420.432 200.426L463.787 196.626L460.867 149.014Z" fill="#05555E"/>
<path d="M424.904 147.392C424.904 147.392 429.389 146.269 428.662 142.395C427.953 138.582 427.926 135.272 429.348 135.733C429.348 135.733 430.603 137.626 438.408 135.522C446.162 133.497 445.676 131.158 445.676 131.158C445.676 131.158 446.773 130.303 447.593 132.497C448.412 134.692 450.489 140.769 454.88 140.331L456.067 151.658L432.712 158.419C432.661 158.498 421.866 149.302 424.904 147.392Z" fill="#05555E"/>
<path d="M234.409 373.429H249.103" stroke="white" stroke-width="5" stroke-miterlimit="10" stroke-linecap="round"/>
<path opacity="0.5" d="M237.401 379.037H244.749" stroke="white" stroke-width="5" stroke-miterlimit="10" stroke-linecap="round"/>
<path d="M224.62 362.231L235.895 355.316L243.838 359.968L254.409 353.235" stroke="white" stroke-width="6.50414" stroke-linecap="round" stroke-linejoin="round"/>
<path d="M246.283 350.301H257.528V360.086" stroke="white" stroke-width="6.50414" stroke-linecap="round" stroke-linejoin="round"/>
<path d="M379.427 46.4505H335.846C335.313 46.4686 334.783 46.3769 334.298 46.1824C333.813 45.9884 333.386 45.6966 333.052 45.3318C332.717 44.9664 332.484 44.5378 332.372 44.079C332.259 43.6208 332.27 43.1461 332.404 42.6917L339.102 12.4058C339.36 11.3708 340.001 10.4404 340.924 9.76018C341.848 9.08006 343.002 8.68863 344.206 8.64726H387.787C388.319 8.62918 388.849 8.72094 389.335 8.91517C389.82 9.1094 390.247 9.40073 390.581 9.7659C390.916 10.1311 391.148 10.56 391.261 11.0183C391.373 11.4767 391.363 11.9518 391.229 12.4058L384.531 42.6917C384.273 43.7269 383.632 44.6571 382.708 45.3373C381.784 46.0175 380.63 46.4087 379.427 46.4505Z" fill="#1C85E8"/>
<path d="M349.533 16.8381L378.551 16.8431C378.76 16.8351 378.967 16.8696 379.157 16.9439C379.348 17.0182 379.516 17.1303 379.649 17.2711C379.782 17.4123 379.876 17.5787 379.924 17.7568C379.972 17.9353 379.972 18.1205 379.924 18.2991L379.527 20.2095C379.46 20.487 379.322 20.7475 379.122 20.97C378.922 21.1931 378.666 21.3722 378.374 21.4931L362.476 28.2223C362.23 28.3366 361.956 28.3959 361.678 28.3942C361.4 28.3931 361.126 28.3311 360.882 28.214L347.803 21.281C347.564 21.1497 347.378 20.9563 347.269 20.7277C347.161 20.4986 347.137 20.2464 347.2 20.0046L347.556 18.2936C347.652 17.8914 347.9 17.5293 348.258 17.2656C348.617 17.0015 349.066 16.8511 349.533 16.8381Z" fill="white"/>
<path d="M348.092 23.7947L360.603 30.6969C360.773 30.781 360.965 30.8255 361.16 30.8255C361.355 30.8255 361.547 30.781 361.717 30.6969L377.098 23.7996C377.925 23.4287 378.758 23.8991 378.603 24.6491L376.316 35.6442C376.142 36.3668 375.697 37.0173 375.053 37.4915C374.409 37.9657 373.602 38.236 372.763 38.2591L346.414 38.2547C346.04 38.269 345.667 38.2069 345.325 38.0734C344.983 37.9399 344.681 37.7388 344.442 37.4855C344.203 37.2316 344.034 36.9333 343.948 36.6129C343.863 36.2926 343.862 35.9591 343.948 35.6387L346.234 24.6436C346.269 24.4688 346.351 24.3035 346.471 24.16C346.591 24.0166 346.746 23.8996 346.925 23.8177C347.105 23.7359 347.303 23.6908 347.506 23.687C347.708 23.6826 347.909 23.7194 348.092 23.7947Z" fill="white"/>
<path d="M389.292 16.5796C394.273 16.5796 398.311 13.0282 398.311 8.64723C398.311 4.26631 394.273 0.714844 389.292 0.714844C384.31 0.714844 380.273 4.26631 380.273 8.64723C380.273 13.0282 384.31 16.5796 389.292 16.5796Z" fill="#FF967C"/>
<path d="M389.924 184.104L397.402 193.876L393.414 177.181L389.924 184.104Z" fill="#FF967C"/>
<defs>
<linearGradient id="paint0_linear_0_260" x1="261.409" y1="95.7306" x2="270.241" y2="266.22" gradientUnits="userSpaceOnUse">
<stop stop-color="white"/>
<stop offset="1" stop-color="#94B9FF"/>
</linearGradient>
<linearGradient id="paint1_linear_0_260" x1="232.204" y1="146.046" x2="269.305" y2="441.755" gradientUnits="userSpaceOnUse">
<stop stop-color="white"/>
<stop offset="1" stop-color="#94B9FF"/>
</linearGradient>
<linearGradient id="paint2_linear_0_260" x1="355.801" y1="146.046" x2="392.902" y2="441.755" gradientUnits="userSpaceOnUse">
<stop stop-color="white"/>
<stop offset="1" stop-color="#94B9FF"/>
</linearGradient>
<linearGradient id="paint3_linear_0_260" x1="126.717" y1="329.779" x2="135.735" y2="456.021" gradientUnits="userSpaceOnUse">
<stop stop-color="white"/>
<stop offset="1" stop-color="#94B9FF"/>
</linearGradient>
</defs>
</svg>
